<svg width="500" height="111" viewBox="0 0 500 111" fill="none" xmlns="http://www.w3.org/2000/svg">
<path d="M460.247 80.3869C465.905 92.9337 478.39 101 492.154 101H499C499.552 101 500 101.448 500 102V110C500 110.552 499.552 111 499 111H1C0.447715 111 8.05302e-09 110.552 0 110V102C1.28852e-07 101.448 0.447715 101 1 101H12.8463C26.6096 101 39.0952 92.9337 44.7527 80.3869L71.7053 20.6131C77.3628 8.06633 89.8484 0 103.612 0H401.388C415.152 0 427.637 8.06634 433.295 20.6131L460.247 80.3869Z" fill="#1A1A1A"/>
</svg>
